<svg version="1.2" baseProfile="tiny-ps" xmlns="http://www.w3.org/2000/svg" viewBox="0 0 198 57" width="198" height="57">
	<title>New Project</title>
	<style>
		tspan { white-space:pre }
		.shp0 { fill: #08a8dd } 
	</style>
	<path id="Shape 1" class="shp0" d="M33.5 54C19.4 54 8 42.6 8 28.5C8 14.4 19.4 3 33.5 3C47.6 3 59 14.4 59 28.5C59 42.6 47.6 54 33.5 54Z" />
	<path id="Trakly " fill="#000000" aria-label="Trakly"  d="M30.78 17.28L30.78 13.47L59.15 13.47L59.15 17.28L47.25 17.28L47.25 47L42.69 47L42.69 17.28L30.78 17.28ZM71.14 21.46L71.17 25.71Q70.47 25.3 69.64 25.12Q68.83 24.92 67.84 24.92Q64.34 24.92 62.45 27.21Q60.59 29.48 60.59 33.75L60.59 47L56.43 47L56.43 21.84L60.59 21.84L60.59 25.75Q61.89 23.46 63.98 22.36Q66.07 21.24 69.06 21.24Q69.48 21.24 70 21.3Q70.52 21.35 71.14 21.46ZM91.04 34.35L86.93 34.35Q81.93 34.35 79.99 35.5Q78.06 36.65 78.06 39.41Q78.06 41.61 79.5 42.91Q80.96 44.19 83.45 44.19Q86.89 44.19 88.96 41.77Q91.04 39.32 91.04 35.28L91.04 34.35ZM95.18 32.65L95.18 47L91.04 47L91.04 43.18Q89.63 45.47 87.52 46.57Q85.41 47.65 82.35 47.65Q78.49 47.65 76.2 45.5Q73.93 43.32 73.93 39.68Q73.93 35.43 76.76 33.28Q79.61 31.12 85.25 31.12L91.04 31.12L91.04 30.72Q91.04 27.86 89.16 26.31Q87.29 24.74 83.9 24.74Q81.75 24.74 79.7 25.26Q77.66 25.77 75.77 26.81L75.77 22.99Q78.04 22.11 80.17 21.69Q82.31 21.24 84.33 21.24Q89.79 21.24 92.48 24.07Q95.18 26.9 95.18 32.65ZM103.53 47L103.53 12.05L107.69 12.05L107.69 32.69L120.02 21.84L125.3 21.84L111.96 33.61L125.86 47L120.47 47L107.69 34.71L107.69 47L103.53 47ZM130.33 47L130.33 12.05L134.46 12.05L134.46 47L130.33 47ZM164.63 21.84L153.58 49.34Q151.82 53.83 150.16 55.2Q148.5 56.57 145.71 56.57L142.41 56.57L142.41 53.11L144.84 53.11Q146.55 53.11 147.49 52.3Q148.43 51.49 149.58 48.48L150.32 46.6L140.14 21.84L144.52 21.84L152.39 41.52L160.25 21.84L164.63 21.84Z" />
</svg>